<svg width="14" height="15" viewBox="0 0 14 15" fill="none" xmlns="http://www.w3.org/2000/svg">
<g clip-path="url(#clip0_25_1582)">
<path d="M11.8125 3.5625H2.1875" stroke="#737373" stroke-linecap="round" stroke-linejoin="round"/>
<path d="M5.6875 6.1875V9.6875" stroke="#737373" stroke-linecap="round" stroke-linejoin="round"/>
<path d="M8.3125 6.1875V9.6875" stroke="#737373" stroke-linecap="round" stroke-linejoin="round"/>
<path d="M10.9375 3.5625V11.875C10.9375 11.991 10.8914 12.1023 10.8094 12.1844C10.7273 12.2664 10.616 12.3125 10.5 12.3125H3.5C3.38397 12.3125 3.27269 12.2664 3.19064 12.1844C3.10859 12.1023 3.0625 11.991 3.0625 11.875V3.5625" stroke="#737373" stroke-linecap="round" stroke-linejoin="round"/>
<path d="M9.1875 3.5625V2.6875C9.1875 2.45544 9.09531 2.23288 8.93122 2.06878C8.76712 1.90469 8.54456 1.8125 8.3125 1.8125H5.6875C5.45544 1.8125 5.23288 1.90469 5.06878 2.06878C4.90469 2.23288 4.8125 2.45544 4.8125 2.6875V3.5625" stroke="#737373" stroke-linecap="round" stroke-linejoin="round"/>
</g>
<defs>
<clipPath id="clip0_25_1582">
<rect width="14" height="14" fill="white" transform="translate(0 0.5)"/>
</clipPath>
</defs>
</svg>
