<svg width="34" height="35" viewBox="0 0 34 35" fill="none" xmlns="http://www.w3.org/2000/svg">
<path d="M28.3332 17.5V31.6667H5.6665V17.5" stroke="#262626" stroke-width="1.5" stroke-linecap="round" stroke-linejoin="round"/>
<path d="M31.1668 10.4167H2.8335V17.5H31.1668V10.4167Z" stroke="#262626" stroke-width="1.5" stroke-linecap="round" stroke-linejoin="round"/>
<path d="M17 31.6667V10.4167" stroke="#262626" stroke-width="1.5" stroke-linecap="round" stroke-linejoin="round"/>
<path d="M17.0002 10.4166H10.6252C9.68585 10.4166 8.78502 10.0435 8.12083 9.37932C7.45663 8.71513 7.0835 7.81429 7.0835 6.87498C7.0835 5.93567 7.45663 5.03483 8.12083 4.37064C8.78502 3.70645 9.68585 3.33331 10.6252 3.33331C15.5835 3.33331 17.0002 10.4166 17.0002 10.4166Z" stroke="#262626" stroke-width="1.5" stroke-linecap="round" stroke-linejoin="round"/>
<path d="M17 10.4166H23.375C24.3143 10.4166 25.2151 10.0435 25.8793 9.37932C26.5435 8.71513 26.9167 7.81429 26.9167 6.87498C26.9167 5.93567 26.5435 5.03483 25.8793 4.37064C25.2151 3.70645 24.3143 3.33331 23.375 3.33331C18.4167 3.33331 17 10.4166 17 10.4166Z" stroke="#262626" stroke-width="1.5" stroke-linecap="round" stroke-linejoin="round"/>
</svg>
