<svg width="28" height="28" viewBox="0 0 28 28" fill="none" xmlns="http://www.w3.org/2000/svg">
<path fill-rule="evenodd" clip-rule="evenodd" d="M0 4.375C0 1.95875 1.95875 0 4.375 0H23.625C26.0412 0 28 1.95875 28 4.375V23.625C28 26.0412 26.0412 28 23.625 28H4.375C1.95875 28 0 26.0412 0 23.625V4.375ZM7.175 11.6375V21H10.15V11.6375H7.175ZM7 8.6625C7 9.625 7.7 10.325 8.6625 10.325C9.625 10.325 10.325 9.625 10.325 8.6625C10.325 7.7 9.625 7 8.6625 7C7.7875 7 7 7.7 7 8.6625ZM18.025 21H20.825V15.225C20.825 12.3375 19.075 11.375 17.4125 11.375C15.925 11.375 14.875 12.3375 14.6125 12.95V11.6375H11.8125V21H14.7875V16.0125C14.7875 14.7 15.6625 14 16.5375 14C17.4125 14 18.025 14.4375 18.025 15.925V21Z" fill="#262626"/>
</svg>
