<svg width="34" height="35" viewBox="0 0 34 35" fill="none" xmlns="http://www.w3.org/2000/svg">
<path d="M23.375 13.8167L10.625 6.46417" stroke="#262626" stroke-width="1.5" stroke-linecap="round" stroke-linejoin="round"/>
<path d="M29.75 23.1667V11.8333C29.7495 11.3365 29.6183 10.8485 29.3697 10.4183C29.121 9.98815 28.7636 9.63093 28.3333 9.3825L18.4167 3.71584C17.9859 3.46716 17.4974 3.33624 17 3.33624C16.5026 3.33624 16.0141 3.46716 15.5833 3.71584L5.66667 9.3825C5.23637 9.63093 4.87897 9.98815 4.63032 10.4183C4.38167 10.8485 4.25051 11.3365 4.25 11.8333V23.1667C4.25051 23.6635 4.38167 24.1515 4.63032 24.5817C4.87897 25.0119 5.23637 25.3691 5.66667 25.6175L15.5833 31.2842C16.0141 31.5328 16.5026 31.6638 17 31.6638C17.4974 31.6638 17.9859 31.5328 18.4167 31.2842L28.3333 25.6175C28.7636 25.3691 29.121 25.0119 29.3697 24.5817C29.6183 24.1515 29.7495 23.6635 29.75 23.1667Z" stroke="#262626" stroke-width="1.5" stroke-linecap="round" stroke-linejoin="round"/>
<path d="M4.63232 10.36L16.9998 17.5142L29.3673 10.36" stroke="#262626" stroke-width="1.5" stroke-linecap="round" stroke-linejoin="round"/>
<path d="M17 31.78V17.5" stroke="#262626" stroke-width="1.5" stroke-linecap="round" stroke-linejoin="round"/>
</svg>
