<svg width="14" height="14" viewBox="0 0 14 14" fill="none" xmlns="http://www.w3.org/2000/svg">
<g clip-path="url(#clip0_25_1641)">
<path d="M12.8242 6.25505L10.3578 8.40755L11.0966 11.6122C11.1357 11.7798 11.1246 11.9551 11.0646 12.1163C11.0046 12.2776 10.8983 12.4175 10.7592 12.5187C10.6201 12.6199 10.4542 12.6778 10.2824 12.6853C10.1105 12.6927 9.94024 12.6493 9.79289 12.5605L6.99781 10.8652L4.20875 12.5605C4.06141 12.6493 3.89115 12.6927 3.71928 12.6853C3.54741 12.6778 3.38154 12.6199 3.24242 12.5187C3.10329 12.4175 2.99709 12.2776 2.93707 12.1163C2.87706 11.9551 2.8659 11.7798 2.905 11.6122L3.64273 8.41083L1.17578 6.25505C1.0453 6.14251 0.950951 5.99396 0.904562 5.82802C0.858172 5.66208 0.861809 5.48613 0.915016 5.32225C0.968223 5.15836 1.06863 5.01384 1.20365 4.90679C1.33867 4.79974 1.50229 4.73494 1.67398 4.72052L4.9257 4.43888L6.195 1.41138C6.26128 1.25252 6.37309 1.11682 6.51634 1.02138C6.65958 0.925929 6.82787 0.875 7 0.875C7.17213 0.875 7.34042 0.925929 7.48366 1.02138C7.62691 1.11682 7.73872 1.25252 7.805 1.41138L9.07812 4.43888L12.3288 4.72052C12.5005 4.73494 12.6641 4.79974 12.7991 4.90679C12.9341 5.01384 13.0345 5.15836 13.0877 5.32225C13.1409 5.48613 13.1446 5.66208 13.0982 5.82802C13.0518 5.99396 12.9574 6.14251 12.827 6.25505H12.8242Z" fill="black"/>
</g>
<defs>
<clipPath id="clip0_25_1641">
<rect width="14" height="14" fill="white"/>
</clipPath>
</defs>
</svg>
