<svg width="34" height="35" viewBox="0 0 34 35" fill="none" xmlns="http://www.w3.org/2000/svg">
<path d="M22.6665 4.75H1.4165V23.1667H22.6665V4.75Z" stroke="#262626" stroke-width="1.5" stroke-linecap="round" stroke-linejoin="round"/>
<path d="M22.6665 11.8333H28.3332L32.5832 16.0833V23.1666H22.6665V11.8333Z" stroke="#262626" stroke-width="1.5" stroke-linecap="round" stroke-linejoin="round"/>
<path d="M7.79167 30.25C9.74767 30.25 11.3333 28.6644 11.3333 26.7084C11.3333 24.7523 9.74767 23.1667 7.79167 23.1667C5.83566 23.1667 4.25 24.7523 4.25 26.7084C4.25 28.6644 5.83566 30.25 7.79167 30.25Z" stroke="#262626" stroke-width="1.5" stroke-linecap="round" stroke-linejoin="round"/>
<path d="M26.2082 30.25C28.1642 30.25 29.7498 28.6644 29.7498 26.7084C29.7498 24.7523 28.1642 23.1667 26.2082 23.1667C24.2522 23.1667 22.6665 24.7523 22.6665 26.7084C22.6665 28.6644 24.2522 30.25 26.2082 30.25Z" stroke="#262626" stroke-width="1.5" stroke-linecap="round" stroke-linejoin="round"/>
</svg>
